<svg width="28" height="30" viewBox="0 0 28 30" fill="none" xmlns="http://www.w3.org/2000/svg">
<path d="M22.9425 5.18909L22.9437 5.18932C23.2323 5.2433 23.5012 5.42021 23.6831 5.69752C23.8657 5.97598 23.9409 6.32725 23.8848 6.67214C23.8848 6.6722 23.8848 6.67225 23.8848 6.67231L20.6311 26.4761L20.631 26.4767C20.6032 26.6468 20.5446 26.8076 20.4602 26.95L20.9762 27.2562L20.4601 26.95C20.3757 27.0924 20.2675 27.2127 20.1436 27.3058C20.0198 27.3988 19.8824 27.4631 19.7397 27.497C19.5971 27.531 19.4502 27.5344 19.3067 27.5072L5.06075 24.812L5.05979 24.8118C4.91624 24.7849 4.77689 24.7275 4.64995 24.6411C4.52288 24.5546 4.41028 24.4402 4.32028 24.3027C4.23023 24.1652 4.16508 24.008 4.13015 23.8398C4.09521 23.6715 4.09153 23.4971 4.11942 23.3271L7.37328 3.52275C7.37329 3.5227 7.37329 3.52265 7.3733 3.52261C7.43001 3.17817 7.61039 2.88297 7.8608 2.69503C8.10936 2.50848 8.40912 2.43972 8.69642 2.49378C8.69646 2.49379 8.69651 2.4938 8.69655 2.4938C8.69663 2.49382 8.69671 2.49383 8.69679 2.49385L22.9425 5.18909ZM15.4123 15.5146L15.4123 15.5146C15.4443 15.3206 15.4402 15.1219 15.4003 14.9294C15.3604 14.7368 15.2851 14.5526 15.1771 14.3875C15.069 14.2224 14.9298 14.0789 14.7657 13.9672C14.6017 13.8554 14.4165 13.778 14.2204 13.7412C14.2202 13.7411 14.2201 13.7411 14.2199 13.7411L9.68352 12.8869L9.6634 12.8831L9.64308 12.8807C9.25803 12.835 8.87645 12.9493 8.57665 13.1897C8.2783 13.4289 8.08471 13.773 8.02285 14.1464C7.96103 14.5196 8.03304 14.9067 8.23018 15.2312C8.42788 15.5567 8.74096 15.8005 9.11443 15.8989L9.13494 15.9043L9.15577 15.9082L13.6948 16.7672L13.6975 16.7677C13.7838 16.7836 13.8714 16.7917 13.9592 16.7917L13.9602 16.7917C14.3186 16.7913 14.659 16.6555 14.9227 16.4181L14.5214 15.9721L14.9227 16.4181C15.1855 16.1817 15.3554 15.8604 15.4123 15.5146ZM20.064 13.5839L19.6872 13.1657L20.064 13.5839C20.1923 13.4683 20.2984 13.3325 20.38 13.1835H20.4736L20.5563 12.6809C20.5882 12.4867 20.5841 12.2879 20.5441 12.0953C20.504 11.9026 20.4286 11.7183 20.3204 11.5532L19.8185 11.8821L20.3204 11.5532C20.2121 11.388 20.0727 11.2446 19.9084 11.133C19.7442 11.0214 19.559 10.9441 19.3629 10.9075C19.3626 10.9074 19.3622 10.9074 19.3619 10.9073L10.2859 9.18975C9.88768 9.11422 9.48197 9.21285 9.16019 9.45391C8.84019 9.69363 8.63207 10.0513 8.56762 10.4414C8.50323 10.8311 8.58483 11.2357 8.80167 11.568C9.01929 11.9014 9.36 12.1403 9.75708 12.2156L9.7574 12.2157L18.8325 13.9319C18.9214 13.9495 19.0118 13.9583 19.1025 13.9581H19.1027C19.4607 13.9573 19.8007 13.8212 20.064 13.5839ZM20.6704 9.89078L20.269 9.44478L20.6704 9.89078C20.799 9.77506 20.9053 9.63904 20.9871 9.48978H21.0807L21.1633 8.98701C21.1952 8.79275 21.191 8.59379 21.1509 8.40103C21.1108 8.20824 21.0352 8.02385 20.9268 7.85872C20.8183 7.69352 20.6787 7.55013 20.5142 7.43857C20.3499 7.32721 20.1646 7.25013 19.9686 7.21371C19.9681 7.21362 19.9676 7.21352 19.9671 7.21343L10.8992 5.49857C10.704 5.45694 10.5026 5.45693 10.3073 5.49861C10.1086 5.54099 9.92231 5.62515 9.75894 5.74398C9.59571 5.86271 9.45908 6.01329 9.3553 6.18506C9.25155 6.35675 9.18215 6.54699 9.14963 6.74437C9.11712 6.94172 9.12185 7.14392 9.16367 7.33956C9.20549 7.53521 9.28393 7.72199 9.39604 7.88849C9.50821 8.05507 9.65234 8.19869 9.82165 8.30891C9.9882 8.41732 10.1752 8.49084 10.3722 8.52338L19.4425 10.2399L19.4425 10.2399L19.4457 10.2405C19.5317 10.2562 19.6189 10.2643 19.7063 10.2644L19.7078 10.2644C20.0662 10.264 20.4066 10.1281 20.6704 9.89078Z" fill="white" stroke="#F5F5F5" stroke-width="1.2"/>
</svg>
