<svg width="17" height="15" viewBox="0 0 17 15" fill="none" xmlns="http://www.w3.org/2000/svg">
<path d="M9.01013 10.815C8.87913 10.9329 8.69402 11 8.49988 11C8.30574 11 8.12063 10.9329 7.98964 10.815L4.30222 7.49601C4.04457 7.2641 4.06415 6.90421 4.34596 6.69217C4.62777 6.48014 5.06509 6.49622 5.32275 6.72813L7.8085 8.96553V0.568965C7.8085 0.254737 8.11805 0 8.49988 0C8.88171 0 9.19127 0.254737 9.19127 0.568965V8.96553L11.677 6.72813C11.9347 6.49622 12.372 6.48014 12.6538 6.69217C12.9356 6.90421 12.9552 7.2641 12.6975 7.49601L9.01013 10.815Z" fill="#1C274C"/>
<path d="M1.30769 9.6C1.30769 9.26864 1.01496 9 0.653847 9C0.29274 9 4.56779e-07 9.26864 4.56779e-07 9.6V9.64392C-1.69791e-05 10.738 -3.44775e-05 11.6198 0.101582 12.3134C0.207087 13.0335 0.432786 13.6398 0.957536 14.1213C1.48229 14.6029 2.14299 14.81 2.92771 14.9068C3.68353 15 4.64452 15 5.83678 15H11.1632C12.3555 15 13.3165 15 14.0723 14.9068C14.857 14.81 15.5177 14.6029 16.0425 14.1213C16.5672 13.6398 16.7929 13.0335 16.8984 12.3134C17 11.6198 17 10.738 17 9.64392V9.6C17 9.26864 16.7073 9 16.3462 9C15.9851 9 15.6923 9.26864 15.6923 9.6C15.6923 10.7483 15.6909 11.5492 15.6024 12.1535C15.5164 12.7406 15.3591 13.0514 15.1178 13.2728C14.8765 13.4942 14.5378 13.6386 13.8981 13.7175C13.2395 13.7987 12.3668 13.8 11.1154 13.8H5.88462C4.63323 13.8 3.76046 13.7987 3.10195 13.7175C2.46225 13.6386 2.12349 13.4942 1.88221 13.2728C1.64094 13.0514 1.48362 12.7406 1.39762 12.1535C1.30908 11.5492 1.30769 10.7483 1.30769 9.6Z" fill="#1C274C"/>
</svg>
