<svg width="65" height="67" viewBox="0 0 65 67" fill="none" xmlns="http://www.w3.org/2000/svg">
<g clip-path="url(#clip0_2_49)">
<path d="M64.6789 33.2204C64.6789 14.9501 50.2524 0.138794 32.4567 0.138794C14.661 0.138794 0.234512 14.9501 0.234512 33.2204C0.234512 49.7323 12.0178 63.4185 27.422 65.9001V42.7831H19.2406V33.2204H27.422V25.9321C27.422 17.641 32.2327 13.0613 39.5929 13.0613C43.1182 13.0613 46.8056 13.7074 46.8056 13.7074V21.8486H42.7426C38.7398 21.8486 37.4914 24.3987 37.4914 27.015V33.2204H46.428L44.9994 42.7831H37.4914V65.9001C52.8956 63.4185 64.6789 49.7325 64.6789 33.2204Z" fill="#1877F2"/>
<path d="M44.9994 42.7831L46.428 33.2204H37.4914V27.015C37.4914 24.3985 38.7397 21.8486 42.7426 21.8486H46.8056V13.7074C46.8056 13.7074 43.1182 13.0613 39.5926 13.0613C32.2326 13.0613 27.422 17.641 27.422 25.9321V33.2204H19.2405V42.7831H27.422V65.9001C29.0875 66.1681 30.7708 66.3025 32.4567 66.302C34.1425 66.3026 35.8259 66.1682 37.4914 65.9001V42.7831H44.9994Z" fill="white"/>
</g>
<defs>
<clipPath id="clip0_2_49">
<rect width="64.4444" height="66.1632" fill="white" transform="translate(0.234512 0.138794)"/>
</clipPath>
</defs>
</svg>
