<svg width="65" height="67" viewBox="0 0 65 67" fill="none" xmlns="http://www.w3.org/2000/svg">
<path d="M64.0856 33.2204C64.0856 51.3017 49.811 65.9433 32.2222 65.9433C14.6333 65.9433 0.358748 51.3017 0.358748 33.2204C0.358748 15.1391 14.6333 0.497573 32.2222 0.497573C49.811 0.497573 64.0856 15.1391 64.0856 33.2204Z" fill="white" stroke="#FF3D00" stroke-width="0.717496"/>
<path d="M56.3423 29.1563H54.4197V29.0546H32.9382V38.8566H46.4274C44.4595 44.5625 39.1714 48.6585 32.9382 48.6585C25.0295 48.6585 18.6173 42.0753 18.6173 33.9556C18.6173 25.8359 25.0295 19.2526 32.9382 19.2526C36.5889 19.2526 39.9102 20.6666 42.439 22.9761L49.1902 16.0449C44.9273 11.9661 39.2252 9.45067 32.9382 9.45067C19.757 9.45067 9.06996 20.4227 9.06996 33.9556C9.06996 47.4884 19.757 58.4605 32.9382 58.4605C46.1195 58.4605 56.8065 47.4884 56.8065 33.9556C56.8065 32.3125 56.6418 30.7087 56.3423 29.1563Z" fill="#FFC107"/>
<path d="M11.8219 22.5498L19.6638 28.4542C21.7857 23.0607 26.9246 19.2526 32.9382 19.2526C36.5888 19.2526 39.9101 20.6666 42.4389 22.9761L49.1901 16.0449C44.9272 11.9661 39.2251 9.45067 32.9382 9.45067C23.7704 9.45067 15.8198 14.7646 11.8219 22.5498Z" fill="#FF3D00"/>
<path d="M32.9382 58.4604C39.1034 58.4604 44.7053 56.0381 48.9407 52.0989L41.5535 45.6811C39.0766 47.615 36.05 48.661 32.9382 48.6584C26.7301 48.6584 21.4588 44.5943 19.4729 38.9226L11.6895 45.0795C15.6397 53.0154 23.6618 58.4604 32.9382 58.4604Z" fill="#4CAF50"/>
<path d="M56.3424 29.1563H54.4198V29.0546H32.9383V38.8566H46.4275C45.4861 41.5722 43.7904 43.9452 41.55 45.6824L41.5536 45.6799L48.9408 52.0978C48.4181 52.5854 56.8066 46.208 56.8066 33.9556C56.8066 32.3125 56.6419 30.7087 56.3424 29.1563Z" fill="#1976D2"/>
</svg>
