<svg width="25" height="25" viewBox="0 0 25 25" fill="none" xmlns="http://www.w3.org/2000/svg">
<path d="M12.5 1.05285L24 10.91L24 22.5C24 22.8978 23.842 23.2794 23.5607 23.5607C23.2794 23.842 22.8978 24 22.5 24H16V19.1667C16 18.2384 15.6313 17.3482 14.9749 16.6918C14.3185 16.0354 13.4283 15.6667 12.5 15.6667C11.5717 15.6667 10.6815 16.0354 10.0251 16.6918C9.36875 17.3482 9 18.2384 9 19.1667V24H2.5C2.10217 24 1.72064 23.842 1.43934 23.5607C1.15803 23.2794 1 22.8978 1 22.5L1 10.91L12.5 1.05285Z" fill="white" stroke="white" stroke-width="2"/>
</svg>
