<svg width="55" height="39" viewBox="0 0 55 39" fill="none" xmlns="http://www.w3.org/2000/svg">
<path d="M27.3649 0L0 10.2621L27.3649 23.9446L40.3985 17.4278L28.1715 13.6895C27.9197 13.8102 27.6442 13.8732 27.3649 13.8738C26.8676 13.8738 26.3907 13.6763 26.0391 13.3247C25.6875 12.973 25.4899 12.4961 25.4899 11.9988C25.4899 11.5015 25.6875 11.0246 26.0391 10.673C26.3907 10.3214 26.8676 10.1238 27.3649 10.1238L27.0548 11.1319L29.2271 11.8002C29.2275 11.8024 29.2278 11.8046 29.2281 11.8068L32.4336 12.787L50.6852 18.4025V19.8259C50.4328 19.9976 50.2261 20.2284 50.0832 20.4982C49.9402 20.768 49.8653 21.0686 49.8649 21.3739C49.8653 21.6863 49.9436 21.9936 50.0929 22.2679C50.2421 22.5423 50.4575 22.775 50.7196 22.945C49.8661 26.1705 49.8649 33.489 49.8649 36.3738C51.7399 37.592 51.7399 37.6365 53.6149 36.3738C53.6149 33.4894 53.614 26.1723 52.7606 22.946C53.0228 22.7759 53.2382 22.543 53.3874 22.2684C53.5366 21.9938 53.6148 21.6863 53.6149 21.3738C53.6149 21.0682 53.5401 20.7672 53.3972 20.497C53.2542 20.2268 53.0473 19.9957 52.7946 19.8238V16.8449L45.8426 14.7059L54.7298 10.2621L27.3649 0ZM11.3832 18.6785L9.84539 27.9059C12.9128 28.307 16.582 30.0899 19.9552 32.1981C21.8735 33.3972 23.6704 34.7133 25.1297 35.9903C26.0217 36.7707 26.7676 37.5196 27.3649 38.2563C27.9622 37.5195 28.7081 36.7707 29.6002 35.9903C31.0595 34.7133 32.8562 33.3972 34.7747 32.1981C38.1478 30.0899 41.8171 28.307 44.8845 27.9059L43.3464 18.6785H42.6139L27.3649 26.3031L12.1157 18.6785H11.3832Z" fill="#CA3C4F"/>
</svg>
