<svg width="28" height="30" viewBox="0 0 28 30" fill="none" xmlns="http://www.w3.org/2000/svg">
<path fill-rule="evenodd" clip-rule="evenodd" d="M6.20984 11.0935V14.7408C6.20984 19.3275 9.69447 23.061 13.9754 23.061C18.2564 23.061 21.741 19.3275 21.741 14.7408V11.0935H23.1529V14.7408C23.1529 19.9081 19.4132 24.1575 14.6815 24.545L14.6814 28.4872H18.2112V30H9.73965V28.4872H13.2694L13.2694 24.545C8.53763 24.1575 4.79791 19.9081 4.79791 14.7408V11.0935H6.20984ZM13.9754 0C17.4784 0 20.3291 3.0543 20.3291 6.8075V14.3714C20.3291 18.1246 17.4784 21.1789 13.9754 21.1789C10.4724 21.1789 7.62176 18.1246 7.62176 14.3714V6.8075C7.62176 3.0543 10.4724 0 13.9754 0Z" fill="white"/>
</svg>
