<svg width="35" height="38" viewBox="0 0 35 38" fill="none" xmlns="http://www.w3.org/2000/svg">
<path d="M17.5 7.33337C18.7541 7.33337 19.9752 7.87352 20.8892 8.86584C21.8057 9.86092 22.3333 11.2269 22.3333 12.6667C22.3333 14.1065 21.8057 15.4725 20.8892 16.4676C19.9752 17.4599 18.7541 18 17.5 18C16.2459 18 15.0247 17.4599 14.1107 16.4676C13.1942 15.4725 12.6666 14.1065 12.6666 12.6667C12.6666 11.2269 13.1942 9.86092 14.1107 8.86584C15.0247 7.87352 16.2459 7.33337 17.5 7.33337ZM17.5 23.1667C20.5894 23.1667 23.3355 23.8481 25.2734 24.9C27.2499 25.973 28.1666 27.2902 28.1666 28.5V30.6667H6.83331V28.5C6.83331 27.2902 7.75003 25.973 9.72655 24.9C11.6644 23.8481 14.4105 23.1667 17.5 23.1667Z" fill="white" stroke="#FFFAF9" stroke-width="2"/>
</svg>
