<svg width="41" height="43" viewBox="0 0 41 43" fill="none" xmlns="http://www.w3.org/2000/svg">
<path d="M29.0417 30.4583H29.0588M26.65 25.0833H30.75C32.342 25.0833 33.1379 25.0833 33.7659 25.356C34.603 25.7197 35.2682 26.4174 35.615 27.2953C35.875 27.9539 35.875 28.7887 35.875 30.4583C35.875 32.128 35.875 32.9627 35.615 33.6213C35.2682 34.4993 34.603 35.1969 33.7659 35.5606C33.1379 35.8333 32.342 35.8333 30.75 35.8333H10.25C8.65804 35.8333 7.86206 35.8333 7.23416 35.5606C6.39699 35.1969 5.73185 34.4993 5.38508 33.6213C5.125 32.9627 5.125 32.128 5.125 30.4583C5.125 28.7887 5.125 27.9539 5.38508 27.2953C5.73185 26.4174 6.39699 25.7197 7.23416 25.356C7.86206 25.0833 8.65804 25.0833 10.25 25.0833H14.35M20.5 26.875V7.16667M20.5 7.16667L25.625 12.5417M20.5 7.16667L15.375 12.5417" stroke="white" stroke-width="5" stroke-linecap="round" stroke-linejoin="round"/>
</svg>
